HIERARCHY
ROOT Hips
{
	OFFSET 56.877701 -32.693596 43.373703
	CHANNELS 6 Xposition Yposition Zposition Zrotation Xrotation Yrotation
	JOINT Chest
	{
		OFFSET -0.779999 1.005800 5.403099
		CHANNELS 6 Xposition Yposition Zposition Zrotation Xrotation Yrotation
		JOINT Chest2
		{
			OFFSET 0.000000 0.000000 4.236801
			CHANNELS 6 Xposition Yposition Zposition Zrotation Xrotation Yrotation
			JOINT Neck
			{
				OFFSET 0.000000 0.000000 9.874401
				CHANNELS 6 Xposition Yposition Zposition Zrotation Xrotation Yrotation
				JOINT Head
				{
					OFFSET 0.000000 0.000002 2.173893
					CHANNELS 6 Xposition Yposition Zposition Zrotation Xrotation Yrotation
					End Site
					{
						OFFSET 0.000000 0.000000 6.508102
					}
				}
			}
			JOINT LeftCollar
			{
				OFFSET 2.681599 -0.377600 5.432499
				CHANNELS 6 Xposition Yposition Zposition Zrotation Xrotation Yrotation
				JOINT LeftShoulder
				{
					OFFSET 5.161499 0.000000 0.000000
					CHANNELS 6 Xposition Yposition Zposition Zrotation Xrotation Yrotation
					JOINT LeftElbow
					{
						OFFSET 0.000000 0.000000 -10.869099
						CHANNELS 6 Xposition Yposition Zposition Zrotation Xrotation Yrotation
						JOINT LeftWrist
						{
							OFFSET 0.000000 0.000000 -13.344799
							CHANNELS 6 Xposition Yposition Zposition Zrotation Xrotation Yrotation
							End Site
							{
								OFFSET 0.000000 0.000000 -2.173901
							}
						}
					}
				}
			}
			JOINT RightCollar
			{
				OFFSET -2.381901 -1.419600 6.136600
				CHANNELS 6 Xposition Yposition Zposition Zrotation Xrotation Yrotation
				JOINT RightShoulder
				{
					OFFSET -4.550499 0.000000 0.000000
					CHANNELS 6 Xposition Yposition Zposition Zrotation Xrotation Yrotation
					JOINT RightElbow
					{
						OFFSET 0.000000 0.000000 -11.106499
						CHANNELS 6 Xposition Yposition Zposition Zrotation Xrotation Yrotation
						JOINT RightWrist
						{
							OFFSET 0.000000 0.000000 -12.874298
							CHANNELS 6 Xposition Yposition Zposition Zrotation Xrotation Yrotation
							End Site
							{
								OFFSET 0.000000 0.000000 -2.173901
							}
						}
					}
				}
			}
		}
	}
	JOINT LeftHip
	{
		OFFSET 2.431900 0.469601 -2.489399
		CHANNELS 6 Xposition Yposition Zposition Zrotation Xrotation Yrotation
		JOINT LeftKnee
		{
			OFFSET 0.000000 -0.000004 -18.200201
			CHANNELS 6 Xposition Yposition Zposition Zrotation Xrotation Yrotation
			JOINT LeftAnkle
			{
				OFFSET 0.000000 0.000000 -16.279900
				CHANNELS 6 Xposition Yposition Zposition Zrotation Xrotation Yrotation
				End Site
				{
					OFFSET 0.000000 -8.394100 0.000000
				}
			}
		}
	}
	JOINT RightHip
	{
		OFFSET -1.987999 -0.073502 -2.713001
		CHANNELS 6 Xposition Yposition Zposition Zrotation Xrotation Yrotation
		JOINT RightKnee
		{
			OFFSET 0.000000 -0.000004 -19.547802
			CHANNELS 6 Xposition Yposition Zposition Zrotation Xrotation Yrotation
			JOINT RightAnkle
			{
				OFFSET 0.000000 0.000000 -14.881199
				CHANNELS 6 Xposition Yposition Zposition Zrotation Xrotation Yrotation
				End Site
				{
					OFFSET 0.000000 -7.922699 0.000000
				}
			}
		}
	}
}
MOTION
Frames: 7
Frame Time: 0.041667
57.401505 -29.493900 43.723701 1422.488200 15.590247 -0.061554 -0.779995 1.005795 5.403092 18.137868 -15.008615 -7.631154 -0.000010 -0.000004 4.236804 -13.984921 -3.385921 -1.585880 -0.000015 0.000004 9.874404 -36.103663 4.426491 21.823832 0.000001 0.000005 2.173884 -5.603319 -0.417596 -2.614803 2.681593 -0.377593 5.432502 9.382561 -4.833635 -11.244258 5.161520 0.000004 0.000002 153.549578 -111.399812 54.128689 -0.000003 0.000004 -10.869106 64.838822 -6.640453 7.694980 0.000005 -0.000012 -13.344808 32.459822 -17.448149 22.365506 -2.381911 -1.419594 6.136598 -12.961208 -26.771102 36.169130 -4.550491 -0.000007 -0.000000 -606.507903 -402.154790 -186.521675 0.000005 -0.000005 -11.106491 -111.329720 -62.283245 -119.278052 -0.000009 0.000005 -12.874302 -418.693274 -4.900831 -10.179523 2.431902 0.469596 -2.489392 6.382265 -17.594456 2.606404 0.000003 -0.000007 -18.200199 22.098109 22.898283 10.649943 0.000005 0.000006 -16.279900 -26.928972 35.597532 -14.594690 -1.987998 -0.073507 -2.713006 -153.254091 -6.731206 -119.415517 -0.000009 -0.000004 -19.547787 -869.439969 45.350991 217.169512 -0.000001 0.000004 -14.881198 493.203261 161.098208 160.973707
57.378105 -29.490299 43.720901 1422.625460 15.515635 -0.056150 -0.779997 1.005803 5.403099 17.982551 -15.020720 -7.719571 0.000008 -0.000001 4.236797 -13.844640 -3.332841 -1.561577 0.000000 0.000000 9.874395 -36.157331 4.396126 21.903524 -0.000005 -0.000000 2.173896 -5.655097 -0.389844 -2.761285 2.681599 -0.377601 5.432498 8.439495 -4.214900 -11.041948 5.161506 0.000001 0.000003 153.565807 -111.128359 53.067267 0.000002 -0.000014 -10.869089 64.926904 -6.569818 7.557060 -0.000006 0.000002 -13.344795 32.303390 -17.390770 22.619445 -2.381903 -1.419602 6.136598 -12.892095 -26.856582 36.547232 -4.550505 0.000000 0.000004 -606.324307 -402.464416 -186.268261 -0.000003 -0.000008 -11.106474 -111.064361 -62.201740 -119.252945 0.000001 0.000006 -12.874298 -418.643522 -4.892244 -10.180095 2.431900 0.469595 -2.489394 6.204210 -17.478775 2.491234 -0.000008 -0.000003 -18.200195 21.927735 22.831523 10.757631 0.000003 0.000002 -16.279898 -26.748300 35.570925 -14.626498 -1.988000 -0.073499 -2.713001 -153.212017 -6.737796 -119.268873 -0.000006 -0.000003 -19.547791 -869.894477 45.035180 217.672542 0.000000 0.000004 -14.881195 492.853282 161.059426 160.822077
57.357300 -29.485096 43.719303 1422.729388 15.505165 -0.063904 -0.779997 1.005803 5.403096 17.871229 -15.076295 -7.743122 0.000006 -0.000004 4.236802 -13.721885 -3.297139 -1.544341 -0.000011 -0.000002 9.874401 -36.209309 4.379950 21.973516 -0.000004 0.000009 2.173897 -5.666386 -0.357550 -2.843336 2.681598 -0.377600 5.432502 8.391997 -4.150286 -10.686963 5.161504 -0.000002 0.000007 152.578913 -111.149608 52.039225 -0.000003 -0.000003 -10.869097 64.502790 -6.612018 7.396809 0.000005 -0.000002 -13.344806 32.602501 -17.314825 22.549508 -2.381906 -1.419600 6.136599 -12.062549 -27.064109 36.161019 -4.550505 -0.000009 0.000009 -607.290369 -401.977396 -187.162223 0.000002 -0.000010 -11.106484 -110.542288 -62.003685 -119.012891 -0.000004 0.000000 -12.874299 -418.612049 -5.062959 -10.246511 2.431897 0.469601 -2.489393 6.121590 -17.442136 2.418879 0.000005 -0.000002 -18.200199 21.787887 22.792618 10.838749 -0.000010 -0.000003 -16.279898 -26.631688 35.557681 -14.667992 -1.988003 -0.073504 -2.712998 -153.131243 -6.711275 -119.164862 -0.000005 -0.000005 -19.547791 -870.039824 44.895656 217.896517 -0.000005 0.000006 -14.881199 492.732142 161.063073 160.766069
57.344398 -29.479099 43.721203 1422.697805 15.601703 -0.052584 -0.779995 1.005800 5.403098 17.904969 -15.213741 -7.705957 -0.000002 -0.000000 4.236803 -13.623011 -3.279157 -1.533781 0.000006 0.000010 9.874391 -36.264927 4.359869 22.045240 0.000004 0.000001 2.173882 -5.653474 -0.329887 -2.885384 2.681607 -0.377598 5.432495 8.339346 -4.094043 -10.549678 5.161507 0.000008 -0.000001 152.119105 -111.091203 51.543473 -0.000002 -0.000006 -10.869097 64.770575 -6.535517 7.336484 -0.000003 0.000000 -13.344793 32.233206 -17.256651 22.542860 -2.381891 -1.419598 6.136596 -12.080318 -27.078514 36.330804 -4.550493 0.000000 0.000005 -606.873455 -402.121240 -186.785293 0.000005 -0.000005 -11.106492 -109.958123 -61.812406 -118.727266 -0.000007 0.000016 -12.874296 -418.586613 -5.228766 -10.347871 2.431904 0.469601 -2.489393 6.230613 -17.529636 2.409012 -0.000014 -0.000004 -18.200203 21.740330 22.776820 10.859426 0.000004 0.000000 -16.279900 -26.640509 35.565563 -14.697203 -1.987994 -0.073502 -2.713004 -152.960078 -6.657349 -119.110781 -0.000005 -0.000009 -19.547791 -870.290082 44.747595 218.154480 0.000004 -0.000001 -14.881204 492.798859 161.071679 160.465814
57.315697 -29.473694 43.720798 1422.752119 15.586007 0.128401 -0.780008 1.005803 5.403096 17.801039 -15.258289 -7.870301 -0.000002 -0.000004 4.236802 -13.662600 -3.318990 -1.546547 -0.000002 -0.000002 9.874404 -36.241257 4.336972 22.036642 0.000002 0.000009 2.173891 -5.569752 -0.326481 -2.813330 2.681601 -0.377604 5.432499 8.323274 -4.103751 -10.789574 5.161512 0.000005 0.000003 152.870862 -111.036903 52.209631 -0.000003 -0.000003 -10.869090 65.086116 -6.459399 7.313313 -0.000010 0.000006 -13.344804 31.885092 -17.212599 22.446443 -2.381893 -1.419600 6.136598 -12.134027 -27.009020 36.178938 -4.550503 -0.000002 0.000013 -606.262125 -402.001138 -186.346193 0.000001 -0.000006 -11.106497 -109.388485 -61.708976 -118.500517 -0.000000 0.000023 -12.874302 -418.629889 -5.387208 -10.445664 2.431889 0.469601 -2.489401 6.140018 -17.523147 2.161512 -0.000012 -0.000003 -18.200191 21.825948 22.759234 10.867124 0.000006 -0.000003 -16.279902 -26.749003 35.588988 -14.690053 -1.988008 -0.073505 -2.713002 -152.837818 -6.532829 -118.863241 -0.000005 -0.000006 -19.547791 -870.811034 44.300084 218.719787 -0.000004 0.000008 -14.881199 492.562097 161.183681 159.656478
57.292995 -29.470295 43.720909 1422.784794 15.567852 0.269421 -0.780000 1.005796 5.403104 17.729052 -15.287896 -7.995684 0.000006 -0.000002 4.236802 -13.705663 -3.353643 -1.566454 -0.000006 0.000002 9.874403 -36.222843 4.297637 22.049169 -0.000003 0.000009 2.173897 -5.467631 -0.340669 -2.728238 2.681590 -0.377600 5.432488 9.269775 -4.685599 -10.793358 5.161512 0.000007 0.000006 152.801208 -111.421525 53.061100 -0.000002 -0.000008 -10.869101 65.279929 -6.378824 7.299485 0.000004 -0.000006 -13.344797 31.706025 -17.104395 22.411825 -2.381914 -1.419610 6.136599 -12.172868 -26.967779 36.034401 -4.550508 -0.000006 0.000008 -605.923293 -401.883140 -186.115934 0.000002 -0.000009 -11.106486 -108.972622 -61.577434 -118.206232 -0.000003 0.000003 -12.874299 -418.800535 -5.609978 -10.573613 2.431896 0.469594 -2.489395 6.069226 -17.513399 1.977680 0.000000 -0.000003 -18.200205 22.043776 22.744566 10.821872 0.000004 0.000005 -16.279903 -26.998684 35.613887 -14.610108 -1.988000 -0.073503 -2.713000 -152.727306 -6.476668 -118.636916 -0.000003 -0.000013 -19.547791 -871.061511 44.139145 218.994539 0.000001 0.000008 -14.881197 492.530624 161.297171 159.173816
57.275703 -29.469997 43.723705 1422.819000 15.528925 0.274435 -0.780006 1.005801 5.403095 17.689971 -15.253573 -7.955858 -0.000001 0.000002 4.236804 -13.733320 -3.406128 -1.580291 0.000004 0.000004 9.874397 -36.218710 4.300275 22.041995 -0.000004 0.000001 2.173890 -5.365554 -0.367560 -2.631962 2.681607 -0.377597 5.432503 9.570283 -4.901036 -10.818299 5.161519 -0.000000 0.000000 152.901079 -111.623330 53.388044 0.000001 0.000001 -10.869101 65.489391 -6.292933 7.293566 0.000005 -0.000004 -13.344802 31.526845 -17.059273 22.384948 -2.381896 -1.419596 6.136589 -13.046827 -26.705406 36.460226 -4.550499 -0.000008 0.000010 -604.345028 -402.393410 -184.665639 0.000001 -0.000005 -11.106490 -108.569047 -61.643072 -117.774414 -0.000004 0.000005 -12.874300 -419.031969 -5.741771 -10.764753 2.431890 0.469599 -2.489399 6.040025 -17.474732 1.964927 -0.000002 -0.000004 -18.200191 22.377612 22.731088 10.712436 0.000003 0.000006 -16.279892 -27.375089 35.649991 -14.472305 -1.988008 -0.073496 -2.713002 -152.668962 -6.582627 -118.532701 0.000000 -0.000005 -19.547796 -871.192323 44.120812 219.060163 0.000001 0.000003 -14.881191 492.634989 161.392944 158.817034
